<svg width="667" height="667" viewBox="0 0 667 667" fill="none" xmlns="http://www.w3.org/2000/svg">
<path d="M195.2 180C197.333 179.6 189.6 179.2 178 179.067C166.4 178.8 157.2 178.933 157.467 179.2C157.733 179.6 163.067 181.6 169.2 183.867C175.333 186.133 182.933 189.467 186.133 191.333C193.867 195.867 207.467 208.667 213.2 216.8C217.2 222.4 216.533 221.867 208.667 213.6C200.8 205.067 181.867 190.267 184.667 194.533C185.2 195.467 182.133 194.267 177.733 191.867L170 187.467L178.4 195.867C183.6 200.933 188.267 207.2 190.4 211.733L194 219.333L194.4 312.4C194.667 404 194.667 405.733 191.867 416.4C188.133 430.8 181.733 442.133 170.933 453.733C162.533 462.667 162.267 462.933 167.333 460C182.533 450.8 193.733 439.6 201.333 425.733C203.067 422.533 204.667 420.267 205.067 420.533C206.133 421.733 198.533 434.133 192 441.733C181.6 453.867 171.067 462.133 156 470C148.267 474 143.067 477.2 144.4 477.333C145.6 477.333 147.733 476.8 149.067 476C150.267 475.333 157.2 472 164.267 468.8C180.133 461.467 190 455.067 201.067 444.8C210.267 436.133 222 419.467 227.467 407.2C235.2 389.867 236.4 387.733 237.333 389.333C239.2 392.267 241.333 378.8 242.933 354.933C244.533 329.467 242.933 292.933 239.467 277.333C236 261.333 236 260.667 239.333 269.867C241.2 275.067 242.667 280.4 242.8 281.867C242.8 284.533 242.933 284.533 243.867 282.133C245.067 278.933 245.6 279.733 249.067 290.667C258.267 319.333 259.6 361.2 252 390.4C248.4 404.8 243.467 416.267 236.267 427.2C232.8 432.4 230.267 437.2 230.4 437.733C230.533 438.4 230.133 438.533 229.467 438.133C228.8 437.733 227.6 438.267 226.667 439.333C225.733 440.4 225.467 441.333 225.867 441.333C226.4 441.333 225.067 442.933 223.067 444.8C221.067 446.8 220.533 447.467 221.867 446.533C224.133 444.933 224.4 444.933 223.333 446.667C219.733 452.4 222.8 453.733 228 448.8C229.867 446.933 234.533 442.667 238.533 439.067C250.267 428.533 258.8 414.267 264.133 395.6C266.533 387.467 267.067 381.2 267.6 354.267C268 336.933 268.8 322.667 269.467 322.667C270.133 322.667 278.133 332.8 287.467 345.333C296.667 357.733 304.8 368 305.467 368C306.267 368 306.533 368.533 306.133 369.2C305.733 369.867 306.133 371.067 307.2 371.867C308.533 373.067 309.2 372.933 309.867 371.333C310.267 370.133 311.2 369.6 312 370C312.8 370.4 312.933 369.867 312.533 368.8C312.133 367.6 311.067 367.067 310.267 367.6C309.6 368 309.333 367.867 309.733 367.067C310.133 366.4 300.4 351.733 288 334.533C266.667 304.933 245.733 275.067 243.333 270.667C240 264.667 256.133 285.733 278.667 317.333C296.533 342.133 309.067 358.8 312.267 361.6L339 390L353.5 364.5C353.5 364.5 359.333 357.733 363.6 351.733C418.667 275.067 420.267 272.667 434.267 248.667C448.133 225.067 462 205.6 463.733 207.333C464.133 207.733 462.667 210 460.4 212.4C454 219.067 442.667 236.4 432 255.333C419.733 277.333 412 288.933 378 336.667L339 390C347.133 379.2 398.4 321.467 399.067 321.333C399.6 321.333 400 333.467 400 348.267C400 382.667 402.667 398.8 411.067 415.333C426.933 446.667 457.333 466.8 502 475.333C517.333 478.267 517.2 477.733 501.6 473.2C466.133 463.067 444.533 447.2 432.667 422.4C422.133 400.533 418.533 380 418.933 343.333L419.067 320.667L420.133 345.867C421.6 380.933 424.933 402.267 429.467 405.067C431.2 406.267 433.733 406.267 439.333 405.067C445.333 403.867 447.2 404 448 405.2C448.667 406.4 449.2 406 449.733 404.133C450.133 402.4 451.6 401.333 453.6 401.2C465.467 400.667 470.133 400.8 471.333 402C472.133 402.667 473.467 407.2 474.4 411.867C476.533 422 480.533 433.067 483.333 436.8C484.667 438.267 484.4 437.2 482.8 433.733C481.2 430.667 478.8 423.733 477.333 418.267C474.667 408.667 474.667 405.467 474.933 312.533L475.333 216.667L478.667 210.133C480.4 206.667 484.667 200.933 487.867 197.467C491.2 194.133 493.867 190.8 493.867 190.267C494 189.6 497.6 187.067 502 184.533C511.067 179.467 510.4 178.8 499.733 182.533C490.533 185.733 483.867 189.2 481.6 191.867C480.133 193.6 480 193.6 480.667 192C481.2 190.933 480.267 191.6 478.8 193.467C477.333 195.467 473.2 199.2 469.733 202L463.333 206.933L470 200.4C473.733 196.933 475.467 194.933 474 196C472.533 197.067 468.533 200.533 465.067 203.867L458.8 209.733L454.8 205.2C452.533 202.8 450.667 199.467 450.667 197.733C450.667 193.067 464.267 187.333 486 183.067C496.133 181.067 503.6 179.2 502.8 178.933C499.333 177.733 468 181.733 456.133 184.8C442.667 188.267 428.4 195.2 416 204.133L408.667 209.467L415.333 203.333C419.067 200 424.533 195.733 427.733 193.867C436.133 188.8 434.533 188.533 425.2 193.467C410.267 201.467 399.867 212.667 363.6 259.333C341.467 288 335.333 295.333 334 295.333C333.2 295.333 320.267 279.067 305.067 259.333C272.667 217.2 261.867 205.467 247.333 196.133C234.8 188.133 230.8 186.933 242.4 194.667C254.133 202.533 273.2 223.2 294.133 250.667C326.267 292.933 331.467 299.333 333.6 299.733C335.067 300 339.067 295.867 345.467 287.067C362 264.667 390.133 228.933 396.933 221.867C400.4 218.133 402 216.667 400.4 218.533C398.8 220.4 387.867 234.533 376.133 250C342.533 294 334.4 304 332.533 304C331.6 304 328.667 300.8 325.867 296.933C303.733 266.533 269.467 221.467 263.2 214.8C248.133 198.533 225.2 186.4 202 182.533C194 181.2 192.267 180.533 195.2 180ZM493.333 191.2C493.333 191.467 492.4 192.133 491.2 192.533C490.133 192.933 489.6 192.8 490 192C490.8 190.667 493.333 190.133 493.333 191.2ZM475.733 212.8C472.8 219.067 472.667 220.667 472.667 263.333C472.533 346.933 471.6 393.867 470.667 379.333C470.133 372 469.6 347.467 469.467 324.8C469.333 289.867 469.067 283.867 467.467 285.2C466.267 286.267 462.267 286.533 455.2 285.867C449.333 285.467 441.067 284.933 436.667 284.8L428.667 284.667L429.067 280C430 266.533 440.533 242.4 451.733 227.6C457.6 220 476.8 204.267 478.4 205.867C478.533 206.133 477.333 209.2 475.733 212.8Z" fill="#00D9FF"/>
<path d="M470.4 179.6C471.2 179.867 472.8 179.867 473.733 179.6C474.533 179.2 473.867 178.933 472 178.933C470.133 178.933 469.467 179.2 470.4 179.6Z" fill="#00D9FF"/>
<path d="M203.733 180.933C204.667 181.333 205.867 181.2 206.267 180.8C206.8 180.4 206 180 204.533 180.133C203.067 180.133 202.667 180.533 203.733 180.933Z" fill="#00D9FF"/>
<path d="M211.733 182.267C212.667 182.667 213.867 182.533 214.267 182.133C214.8 181.733 214 181.333 212.533 181.467C211.067 181.467 210.667 181.867 211.733 182.267Z" fill="#00D9FF"/>
<path d="M222.667 185.333C223.733 186 225.333 186.667 226 186.667C226.8 186.667 226.4 186 225.333 185.333C224.267 184.667 222.8 184 222 184C221.333 184 221.6 184.667 222.667 185.333Z" fill="#00D9FF"/>
<path d="M436 188C434.933 188.667 434.667 189.333 435.333 189.333C436.133 189.333 437.6 188.667 438.667 188C439.733 187.333 440.133 186.667 439.333 186.667C438.667 186.667 437.067 187.333 436 188Z" fill="#00D9FF"/>
<path d="M244.267 288C244.267 289.867 244.533 290.533 244.933 289.6C245.2 288.8 245.2 287.2 244.933 286.267C244.533 285.467 244.267 286.133 244.267 288Z" fill="#00D9FF"/>
<path d="M214 452.133C211.867 453.733 210.933 454.667 212.133 454.267C213.333 453.867 215.067 454.133 216.133 454.667C217.6 455.6 217.333 455.867 215.333 455.867C208.667 456 207.067 456.533 203.733 459.733C201.6 461.6 200 462.667 200 462.133C200 461.6 197.733 462.4 195.067 463.867C190.933 466 181.333 469.733 169.333 473.733C167.733 474.267 167.867 474.533 169.6 474.533C173.333 474.667 197.333 466.667 200 464.267C202.4 462.4 204.933 461.333 208.933 461.067C209.867 460.933 210.8 460.133 211.2 459.067C211.6 458.133 212.933 457.333 214.267 457.333C216.667 457.2 221.333 454.4 221.333 452.933C221.333 452.4 220.267 452.4 219.067 452.933C217.067 453.6 217.2 453.333 219.333 451.6C223.467 448.267 218.8 448.8 214 452.133Z" fill="#00D9FF"/>
<path d="M154.4 476.933C155.2 477.2 156.8 477.2 157.733 476.933C158.533 476.533 157.867 476.267 156 476.267C154.133 476.267 153.467 476.533 154.4 476.933Z" fill="#00D9FF"/>
</svg>
